<?xml version="1.0" encoding="UTF-8" standalone="no"?>
<!-- Created with Inkscape (http://www.inkscape.org/) -->

<svg
   width="68.474014mm"
   height="52.075508mm"
   viewBox="0 0 68.474014 52.075508"
   version="1.1"
   id="svg1"
   xml:space="preserve"
   xmlns:xlink="http://www.w3.org/1999/xlink"
   xmlns="http://www.w3.org/2000/svg"
   xmlns:svg="http://www.w3.org/2000/svg"><defs
     id="defs1"><linearGradient
       id="linearGradient56132"><stop
         style="stop-color:#9dc4f9;stop-opacity:1;"
         offset="0.38235292"
         id="stop56132" /><stop
         style="stop-color:#9dc4f9;stop-opacity:0;"
         offset="1"
         id="stop56133" /></linearGradient><linearGradient
       xlink:href="#linearGradient56132"
       id="linearGradient56133"
       x1="-13.321911"
       y1="103.34894"
       x2="-257.39917"
       y2="103.34895"
       gradientUnits="userSpaceOnUse" /></defs><g
     id="layer1"
     transform="translate(1.5262184,-124.14246)"><path
       style="fill:#000000"
       d="m 11.967532,169.58681 v -6.87139 l -1.124479,-0.48415 c -4.0608097,-1.7484 -8.5989227,-5.94787 -10.46848767,-9.6873 -1.48389303,-2.96802 -1.90078203,-4.77436 -1.90078203,-8.23588 0,-3.50896 0.260057,-4.66939 1.74292003,-7.77729 0.91025597,-1.90778 1.61403497,-2.90732 3.30451497,-4.69319 3.420752,-3.61379 7.2157627,-5.80195 12.3159687,-7.10125 2.299479,-0.5858 2.649092,-0.59808 16.900136,-0.59335 l 14.55208,0.005 2.58886,0.7243 c 5.04273,1.41084 8.35931,3.35223 11.72269,6.86198 7.10055,7.40955 7.13195,17.74433 0.0766,25.19786 -2.48917,2.62963 -4.943,4.34637 -7.98317,5.58515 -4.72621,1.92578 -7.13867,2.22952 -17.73117,2.23243 l -7.88663,0.002 -7.723783,5.59323 c -4.248079,3.07627 -7.872608,5.71023 -8.054509,5.85323 -0.262768,0.20658 -0.330729,-1.15199 -0.330729,-6.61137 z m 8.723473,-1.76601 6.722928,-4.86842 9.67315,-0.11752 c 9.3249,-0.11328 9.76376,-0.14168 12.18974,-0.78887 7.54468,-2.01271 12.7349,-6.40825 14.91153,-12.62841 0.68609,-1.96065 0.79062,-2.62932 0.78772,-5.03877 -0.003,-2.33129 -0.11996,-3.11858 -0.72836,-4.89479 -2.27918,-6.65401 -7.58926,-11.00927 -15.89997,-13.04098 -1.62934,-0.39832 -3.53863,-0.45278 -15.875,-0.45278 -12.439459,0 -14.224207,0.0518 -15.8055,0.45844 -6.9957207,1.79912 -12.1027457,5.50376 -14.7111157,10.67144 -4.500685,8.91671 -0.165175,19.03756 10.1348537,23.65887 l 1.728634,0.77558 v 5.56732 c 0,3.06202 0.0334,5.56731 0.07423,5.56731 0.04083,0 3.099548,-2.19079 6.79716,-4.86842 z m -7.326683,-10.77142 c -0.744544,-0.21518 -0.835463,-0.33747 -0.719895,-0.96832 0.604944,-3.30221 0.603695,-3.27687 0.151901,-3.08288 -0.237557,0.10199 -1.086765,0.23614 -1.887129,0.29811 -1.1532107,0.0893 -1.7018537,-0.0144 -2.6436977,-0.4998 -2.140346,-1.103 -2.909716,-3.0865 -2.376776,-6.12753 0.474433,-2.7072 0.405066,-2.61405 1.871029,-2.51241 0.71373,0.0495 1.297616,0.0114 1.297526,-0.0847 -9e-5,-0.0961 -0.357258,-0.92951 -0.793706,-1.85208 -1.750637,-3.70053 -0.552932,-8.61517 2.4864627,-10.2029 1.06893,-0.5584 3.750725,-0.54668 4.848846,0.0212 0.983686,0.50868 1.876875,1.69362 2.22384,2.95022 l 0.252093,0.913 5.346878,0.0716 c 2.940784,0.0394 5.731969,-0.0371 6.202629,-0.16997 1.11078,-0.31354 2.81298,0.18425 3.4308,1.0033 l 0.4613,0.61157 1.01573,-0.73579 c 0.66642,-0.48275 1.51237,-0.79784 2.45991,-0.91622 1.23134,-0.15385 1.64134,-0.0829 2.78193,0.4816 0.86904,0.43008 1.36976,0.55687 1.4291,0.36187 0.0502,-0.1651 0.23036,-1.13362 0.40025,-2.15227 0.1699,-1.01864 0.36593,-2.06044 0.43563,-2.3151 0.1151,-0.42057 0.59412,-0.46302 5.22417,-0.46302 2.80359,0 5.16202,0.0646 5.24096,0.14351 0.0789,0.0789 -0.0202,1.00167 -0.22018,2.05052 -0.20003,1.04885 -0.36383,1.95427 -0.364,2.01203 -1.7e-4,0.0578 1.15412,0.0361 2.56508,-0.048 3.64695,-0.21758 4.7275,0.34082 5.38809,2.7844 0.21687,0.8022 0.0875,2.00312 -0.68375,6.35 -0.52315,2.94839 -1.15247,5.77585 -1.39848,6.28325 -0.58888,1.21459 -1.97564,2.12016 -3.24671,2.12016 -1.07836,0 -1.11535,0.0515 -1.42492,1.98438 -0.33736,2.10643 -0.13198,1.98437 -3.33916,1.98437 -2.86563,0 -2.89624,-0.007 -2.7725,-0.59531 0.44048,-2.09572 0.67871,-3.46556 0.67871,-3.90269 0,-0.49343 -0.0219,-0.49329 -1.12448,0.007 -2.09337,0.95021 -4.64814,0.56597 -6.00279,-0.90284 l -0.64497,-0.69932 -0.81024,0.78129 c -0.44562,0.42971 -1.1454,0.90765 -1.55506,1.0621 -1.66512,0.62777 -4.31512,0.16743 -5.20369,-0.90395 -0.37088,-0.44719 -0.40037,-0.4386 -0.5409,0.15746 l -0.14862,0.63043 -5.054905,0.0718 -5.054904,0.0718 0.231675,-0.99781 c 0.474141,-2.04209 0.191276,-1.98824 -0.582306,0.11084 -1.57514,4.27408 -4.173779,5.87195 -7.830771,4.81505 z m 4.082642,-1.81327 c 1.150809,-0.70168 1.491919,-1.44556 4.662852,-10.16854 l 2.751053,-7.56793 H 23.59812 22.335372 l -0.934243,2.97656 c -0.513834,1.63711 -1.140341,3.75047 -1.392238,4.69636 -0.623714,2.34207 -0.989321,2.64501 -0.798304,0.66146 0.08408,-0.87313 0.22952,-3.10555 0.323194,-4.96094 l 0.170316,-3.37344 h -1.222449 -1.222449 l -4.11e-4,7.0776 c -3.61e-4,6.20817 -0.05724,7.19137 -0.463021,8.00365 -0.365812,0.73227 -0.642537,0.94339 -1.322506,1.00895 -0.595625,0.0574 -0.861006,0.22006 -0.863508,0.52917 -0.002,0.24544 -0.0754,0.71415 -0.163151,1.04157 -0.147642,0.55092 -0.07339,0.59524 0.995801,0.59432 0.679658,-5.8e-4 1.504982,-0.21418 2.004561,-0.51879 z m 34.037909,0.0568 c 0.0716,-0.25466 0.27724,-1.32622 0.45708,-2.38125 0.17985,-1.05503 0.39722,-1.91444 0.48306,-1.90981 0.0858,0.005 0.38718,0.18322 0.66965,0.39687 0.8891,0.67249 2.13183,0.49026 2.90247,-0.42559 0.37674,-0.44773 0.68547,-0.89421 0.68607,-0.99219 6e-4,-0.098 0.41154,-2.45628 0.91319,-5.24067 1.02652,-5.69764 0.97853,-6.77243 -0.32455,-7.26786 -0.82443,-0.31345 -1.84899,-0.10812 -2.53185,0.50739 -0.45406,0.40928 -0.5096,0.40789 -0.82292,-0.0206 -0.18832,-0.25754 -0.68104,-0.45951 -1.12102,-0.45951 h -0.78501 l -0.99166,5.75469 c -0.54542,3.16508 -1.26232,7.27273 -1.59312,9.12812 l -0.60144,3.37344 h 1.26498 c 0.9788,0 1.29442,-0.10475 1.39507,-0.46302 z m 1.48457,-6.02952 c -0.27696,-0.33371 -0.2058,-1.15674 0.39461,-4.56407 0.80771,-4.58372 0.9786,-5.08297 1.73987,-5.08297 0.69933,0 0.67983,0.65004 -0.16437,5.47891 -0.78592,4.4955 -1.11703,5.19603 -1.97011,4.16813 z M 15.5111,151.63325 c 0.08833,-0.23018 0.157951,-0.61714 0.154715,-0.8599 -0.0045,-0.33933 -0.125507,-0.28845 -0.523283,0.22008 -0.28457,0.3638 -0.520048,0.75076 -0.523283,0.8599 -0.01125,0.37933 0.732239,0.19586 0.891851,-0.22008 z m -3.124704,-0.27111 c 1.428845,-0.67803 2.043014,-1.94962 2.177289,-4.50788 l 0.115243,-2.19567 -1.50483,-3.15672 c -1.3156,-2.75976 -1.481739,-3.28474 -1.321199,-4.17477 0.219187,-1.21517 0.544611,-1.6795 1.177056,-1.6795 0.648558,0 0.811999,0.58862 0.551143,1.98492 l -0.222331,1.19008 h 1.396221 1.396221 l 0.180483,-1.31227 c 0.242618,-1.76404 -0.0027,-2.69936 -0.944942,-3.60204 -0.669852,-0.64176 -1.005082,-0.75534 -2.229358,-0.75534 -2.589908,0 -3.8519937,1.52914 -4.0473467,4.90374 l -0.119874,2.07077 1.5185127,3.18542 c 1.370054,2.87399 1.501396,3.29957 1.343422,4.35302 -0.19287,1.28615 -0.701081,1.88944 -1.374098,1.63118 -0.369303,-0.14171 -0.412853,-0.43658 -0.277908,-1.88168 l 0.160022,-1.71364 H 9.0649903 c -1.008682,0 -1.323225,0.10241 -1.42215,0.46302 -0.674026,2.45704 -0.321972,4.31978 0.964702,5.10431 1.028817,0.62731 2.5728627,0.66533 3.7788537,0.0931 z m 24.991677,0.0227 c 0.93444,-0.48321 1.72291,-1.9332 1.97868,-3.63877 l 0.18753,-1.25057 h -1.31887 -1.31888 l -0.17178,1.29501 c -0.17329,1.30629 -0.69856,2.06954 -1.20771,1.75487 -0.41205,-0.25466 -0.34155,-1.21671 0.38791,-5.29361 0.812,-4.53815 0.84239,-4.63543 1.44836,-4.63543 0.62402,0 0.75068,0.39918 0.52254,1.64681 l -0.18268,0.99902 h 1.25908 c 1.41435,0 1.58028,-0.19812 1.58028,-1.88686 0,-1.49436 -0.60662,-2.50826 -1.72068,-2.87593 -2.31381,-0.76363 -4.33592,0.57656 -4.86673,3.22551 -0.68221,3.40449 -1.34933,7.51669 -1.34072,8.26428 0.0263,2.28586 2.53567,3.54782 4.76367,2.39567 z m 8.71148,-0.0849 c 0.4997,-0.268 1.13593,-0.92542 1.41384,-1.46094 0.30624,-0.5901 1.04729,-4.02016 1.88112,-8.70701 l 1.37583,-7.73333 -1.3017,-0.081 c -0.71594,-0.0445 -1.33497,-0.0445 -1.37563,0 -0.0407,0.0445 -0.68,3.51878 -1.42075,7.72053 -0.74076,4.20175 -1.48281,7.80339 -1.64901,8.00365 -0.4224,0.50896 -0.96467,0.45351 -1.27728,-0.1306 -0.19295,-0.36053 0.0911,-2.49551 1.0473,-7.87136 0.72163,-4.05716 1.31283,-7.46594 1.31378,-7.57509 9.5e-4,-0.10914 -0.59132,-0.19843 -1.31615,-0.19843 -1.1497,0 -1.33536,0.076 -1.45489,0.59531 -0.71894,3.12354 -2.53252,14.54273 -2.42065,15.24153 0.18008,1.12479 0.82445,2.11623 1.57082,2.41687 0.97911,0.39439 2.65826,0.29209 3.61337,-0.22014 z m -19.02909,-5.38326 c 0.525,-3.01051 1.10891,-5.65965 1.29758,-5.88698 0.38569,-0.46474 0.96147,-0.54163 1.19738,-0.15991 0.0862,0.13938 -0.26401,2.63902 -0.77813,5.55474 -0.51412,2.91573 -0.93476,5.48712 -0.93476,5.7142 0,0.32716 0.2591,0.39614 1.24798,0.33224 l 1.24798,-0.0806 0.98867,-5.55625 c 1.21731,-6.84116 1.23637,-7.32674 0.31615,-8.05059 -0.9265,-0.72878 -1.73783,-0.69165 -2.70705,0.1239 -0.79044,0.66511 -0.80203,0.66652 -1.08794,0.13229 -0.41967,-0.78416 -1.800627,-0.74565 -1.984315,0.0553 -0.282869,1.23347 -2.25481,12.63465 -2.25481,13.03664 0,0.33561 0.250729,0.40376 1.248363,0.33932 l 1.248363,-0.0806 z m 12.68832,-1.53781 c 0,-0.44097 -0.17639,-0.52917 -1.05833,-0.52917 -0.58209,0 -1.05834,0.0498 -1.05834,0.11065 0,0.0609 -0.0723,0.29899 -0.1606,0.52917 -0.13212,0.34431 0.0555,0.41851 1.05834,0.41851 1.04254,0 1.21893,-0.0766 1.21893,-0.52916 z m -24.077084,-2.91042 c 0,-0.95478 -0.06525,-1.05833 -0.666836,-1.05833 h -0.666836 l 0.539922,1.05833 c 0.296956,0.58208 0.597033,1.05833 0.666835,1.05833 0.0698,0 0.126915,-0.47625 0.126915,-1.05833 z"
       id="path56114" /><path
       id="path56120"
       style="fill:#5271ff;fill-opacity:1;stroke-width:0.362439"
       d="m -45.304687,57.982422 c -2.567896,0.0015 -4.032819,0.563648 -6.455079,2.466797 -0.349185,0.274352 -0.71964,0.5263 -1.021484,0.703125 -0.150922,0.08841 -0.285324,0.157795 -0.384766,0.201172 -0.09944,0.04338 -0.183606,0.04883 -0.121093,0.04883 0.08784,0 -0.0022,-0.0027 -0.103516,-0.05469 -0.101277,-0.05195 -0.240184,-0.137416 -0.396484,-0.24414 -0.3126,-0.213449 -0.697311,-0.515966 -1.064453,-0.847657 -1.537487,-1.389026 -3.173161,-1.879311 -5.533204,-1.685547 -0.68131,0.05594 -1.137632,0.08326 -1.492187,0.41211 -0.354556,0.328853 -0.425567,0.781862 -0.552734,1.474609 -0.153835,0.838011 -2.47151,14.175888 -5.167969,29.72461 -2.696384,15.548299 -5.235898,30.066429 -5.634766,32.232419 -0.201282,1.09303 -0.383152,2.13925 -0.515625,2.94727 -0.06624,0.40401 -0.120664,0.74741 -0.158203,1.00976 -0.03754,0.26236 -0.06055,0.40547 -0.06055,0.55274 0,0.13015 0.0529,0.27693 0.136719,0.37695 0.08382,0.10002 0.18443,0.16042 0.287109,0.20703 0.205359,0.0932 0.443469,0.13896 0.767578,0.17774 0.64822,0.0776 1.637783,0.10351 3.146485,0.10351 1.345284,0 2.350287,0.015 3.158203,-0.084 0.807916,-0.099 1.449836,-0.33133 1.925781,-0.83008 0.951891,-0.9975 1.196857,-2.75868 1.871094,-6.28906 0.894392,-4.68315 1.437403,-7.40276 1.822266,-8.92774 0.192431,-0.76249 0.349904,-1.22834 0.466796,-1.46093 0.05067,-0.10084 0.08287,-0.13651 0.09961,-0.1543 -0.0083,0.004 0.05717,0.0116 0.18164,0.0625 0.146094,0.0597 0.340149,0.15391 0.560547,0.26953 0.440797,0.23124 0.988774,0.55582 1.525391,0.91211 1.970889,1.3086 3.929047,1.85039 5.822266,1.57227 1.893218,-0.27813 3.686738,-1.3664 5.367187,-3.20508 2.194751,-2.40141 2.811263,-3.53271 3.138672,-5.75977 0.125597,-0.85432 1.204144,-7.164524 2.384766,-13.941405 2.949197,-16.928674 3.389692,-20.267249 3.220703,-24.474609 -0.05897,-1.468113 -0.128575,-2.415793 -0.275391,-3.142579 -0.146816,-0.726785 -0.385939,-1.237602 -0.738281,-1.732421 -1.25992,-1.769394 -3.350026,-2.622738 -6.207031,-2.621094 z m -5.160157,8.939453 c 0.576632,-0.03639 1.115003,0.13258 1.462891,0.480469 0.09648,0.09648 0.261353,0.482543 0.322266,1.18164 0.06091,0.699098 0.04588,1.694327 -0.05664,3.001953 -0.205048,2.615253 -0.751329,6.488626 -1.662109,11.892579 -1.137876,6.751382 -2.049525,11.541527 -2.841797,14.826171 -0.792273,3.284643 -1.504296,5.073793 -2.072266,5.728513 -0.367772,0.42394 -0.603753,0.51609 -0.9375,0.4375 -0.333747,-0.0786 -0.834423,-0.43346 -1.457031,-1.14257 l -1.064453,-1.21094 0.21289,-2.939456 c 0.108507,-1.49163 0.719413,-5.650803 1.476563,-10.246093 0.75715,-4.595291 1.661193,-9.653803 2.359375,-13.033204 1.092155,-5.286344 1.860118,-7.473399 2.654297,-8.267578 0.429035,-0.429035 1.026889,-0.672598 1.603515,-0.708984 z"
       transform="matrix(0.26458333,0,0,0.26458333,68.394791,121.97292)" /><path
       id="path56121"
       style="fill:#5271ff;fill-opacity:1;stroke-width:0.362439"
       d="m -90.326172,42.433594 c -0.891928,0.04527 -1.739283,0.116884 -2.410156,0.208984 -0.335437,0.04605 -0.626277,0.09539 -0.869141,0.15625 -0.242863,0.06086 -0.416805,0.05716 -0.679687,0.320313 -0.177741,0.177926 -0.227883,0.316637 -0.314453,0.505859 -0.08657,0.189222 -0.174634,0.414123 -0.263672,0.669922 -0.178077,0.511597 -0.360218,1.143539 -0.511719,1.792969 -0.836191,3.58443 -3.589334,19.066453 -5.20117,29.207031 -1.90826,12.005479 -2.94001,18.892213 -3.31641,23.208984 -0.3764,4.316774 -0.0781,6.153194 0.6875,7.814454 0.48989,1.06296 1.28051,2.20963 2.14258,3.20898 0.86207,0.99936 1.772216,1.84424 2.621094,2.28321 0.699365,0.36166 1.983594,0.71804 3.09375,0.91211 4.587935,0.80208 10.271545,-0.4396 13.191406,-3.00977 1.451721,-1.27786 2.449958,-2.40477 3.234375,-3.95117 0.784417,-1.5464 1.356628,-3.48235 2.0625,-6.435548 1.188354,-4.97179 3.869538,-18.770173 6.205078,-31.416016 1.16777,-6.322921 2.247419,-12.350222 3.007813,-16.830078 0.380196,-2.239928 0.681104,-4.093487 0.873047,-5.40625 0.09597,-0.656381 0.164315,-1.175229 0.203125,-1.550781 0.0194,-0.187776 0.03172,-0.337842 0.03516,-0.464844 0.0017,-0.0635 0.001,-0.118834 -0.0059,-0.189453 -0.0069,-0.07062 0.08089,-0.147619 -0.18164,-0.410156 -0.168685,-0.16868 -0.229627,-0.148471 -0.28711,-0.166016 -0.05748,-0.01754 -0.103572,-0.02775 -0.154296,-0.03711 -0.101449,-0.01871 -0.215075,-0.0323 -0.353516,-0.04687 -0.276882,-0.02914 -0.646655,-0.05533 -1.091797,-0.08008 -0.890283,-0.0495 -2.079246,-0.08985 -3.365234,-0.109375 l -4.652344,-0.07031 a 0.5826275,0.5826275 0 0 0 -0.582031,0.472656 l -1.171875,6.160157 c -0.646168,3.395866 -2.319505,12.52702 -3.71875,20.302734 -2.690215,14.949727 -5.024896,26.872855 -5.94336,30.402344 -0.439057,1.687211 -1.200758,2.745871 -1.923828,3.144531 -0.72307,0.39866 -1.431923,0.31417 -2.292969,-0.54687 -0.457561,-0.45757 -0.55268,-0.517 -0.625,-0.98047 -0.07232,-0.46347 -0.03468,-1.38768 0.07422,-3.193363 0.119075,-1.974485 0.632655,-6.25143 1.134766,-9.421875 0.397943,-2.512712 2.182772,-12.984019 3.93164,-23.138672 1.748869,-10.154653 3.474893,-20.060929 3.722657,-21.306641 0.04648,-0.233675 0.08125,-0.435 0.07617,-0.658203 -0.0051,-0.223202 -0.07809,-0.499313 -0.25586,-0.699219 -0.355538,-0.399811 -0.774252,-0.432099 -1.365234,-0.542968 -1.068382,-0.20043 -2.975872,-0.199924 -4.759766,-0.109375 z"
       transform="matrix(0.26458333,0,0,0.26458333,68.394791,121.97292)" /><path
       id="path56122"
       style="fill:#5271ff;fill-opacity:1;stroke-width:0.362439"
       d="m -115.76758,57.648437 c -4.23583,-0.222657 -6.90598,0.818878 -9.89844,3.857422 -1.75004,1.777007 -2.88279,3.2902 -3.81054,5.892578 -0.92776,2.602379 -1.68219,6.283998 -2.83008,12.591797 -2.00474,11.016297 -3.18969,18.952985 -3.21875,21.906246 -0.0212,2.15834 0.19519,3.19181 1.02539,4.88868 1.26335,2.5822 3.68062,4.68618 6.47656,5.65234 4.46781,1.54387 10.07332,0.40985 13.22461,-2.73242 2.94343,-2.935 5.11249,-8.49442 5.78906,-14.474611 l 0.24805,-2.197266 a 0.60634572,0.60634572 0 0 0 -0.60156,-0.673828 h -4.75781 c -1.31817,0 -2.51586,0.0294 -3.39649,0.08008 -0.44031,0.02534 -0.79958,0.05528 -1.07031,0.0918 -0.13537,0.01826 -0.24472,0.03656 -0.35938,0.06836 -0.0573,0.0159 -0.11376,0.03123 -0.20507,0.08203 -0.0457,0.0254 -0.10287,0.05802 -0.17383,0.136718 -0.071,0.0787 -0.16087,0.230331 -0.16211,0.416016 -0.006,0.721809 -0.30795,2.676961 -0.6875,4.523437 -0.37955,1.846477 -0.88118,3.721118 -1.09766,4.181638 -0.39517,0.8407 -0.85102,1.39621 -1.26172,1.70118 -0.41069,0.30496 -0.74616,0.36508 -1.02539,0.30078 -0.27923,-0.0643 -0.563,-0.26841 -0.80664,-0.72657 -0.24363,-0.45816 -0.42174,-1.16259 -0.42383,-2.0957 -0.002,-0.90761 0.29869,-3.482438 0.83789,-7.044921 0.53921,-3.562483 1.31285,-8.162572 2.25196,-13.322266 1.18374,-6.503815 1.88859,-10.04644 2.53711,-11.851562 0.32426,-0.902561 0.62593,-1.336648 0.88281,-1.535157 0.25688,-0.198508 0.53493,-0.251953 1.0625,-0.251953 0.48622,0 0.8314,0.0525 1.03711,0.134766 0.20571,0.08226 0.29361,0.158633 0.39648,0.371094 0.20575,0.424921 0.28078,1.503276 0.14649,3.359375 -0.12948,1.78974 -0.34312,3.861458 -0.44922,4.447265 l -0.22461,1.230469 a 0.60634572,0.60634572 0 0 0 0.62695,0.714844 l 3.90039,-0.199219 c 2.87675,-0.146821 4.59053,-0.300034 5.67188,-1.380859 0.54067,-0.540413 0.83399,-1.27064 0.99414,-2.164063 0.16015,-0.893423 0.20183,-1.977535 0.21875,-3.359375 0.048,-3.918946 -0.80266,-6.992637 -2.64258,-9.138672 -1.83992,-2.146035 -4.62966,-3.2915 -8.22461,-3.480469 z"
       transform="matrix(0.26458333,0,0,0.26458333,68.394791,121.97292)" /><path
       id="path56123"
       style="fill:#5271ff;fill-opacity:1;stroke-width:0.362439"
       d="m -143.66016,57.304687 c -1.99118,0 -3.77586,0.801857 -5.99023,2.578125 -0.67697,0.54303 -1.17873,0.943414 -1.53711,1.183594 -0.35838,0.240181 -0.5444,0.287566 -0.58398,0.289063 -0.0396,0.0015 -0.0761,0.01185 -0.30274,-0.173828 -0.22661,-0.185682 -0.56681,-0.546753 -1.0293,-1.046875 -0.76936,-0.831975 -1.2494,-1.341817 -1.86914,-1.673829 -0.61973,-0.332011 -1.25861,-0.371093 -2.05664,-0.371093 -1.32302,0 -2.32738,0.302604 -3.13476,1.017578 -0.3501,0.31003 -0.68291,0.808513 -0.97071,1.679687 -0.2878,0.871174 -0.60072,2.192537 -1.04882,4.445313 -0.89621,4.505552 -2.31855,12.721828 -4.96094,28.126953 -1.31144,7.645725 -2.03032,11.989365 -2.32813,14.511715 -0.1489,1.26118 -0.1989,2.05884 -0.14257,2.66602 0.0282,0.30359 0.0809,0.569 0.21484,0.82812 0.13312,0.25748 0.3805,0.48773 0.62109,0.59766 0.002,7.1e-4 0.002,0.003 0.004,0.004 a 0.80708062,0.80708062 0 0 0 0,0.002 c 0.28643,0.12907 0.30675,0.084 0.41211,0.0937 0.10536,0.01 0.22128,0.0168 0.35742,0.0215 0.27229,0.009 0.62247,0.0113 1.0293,0.01 0.81366,-0.003 1.85366,-0.0257 2.88672,-0.0586 1.03305,-0.0329 2.05554,-0.0753 2.83789,-0.12305 0.39117,-0.0239 0.72082,-0.0497 0.97265,-0.0762 0.12592,-0.0132 0.22943,-0.0261 0.33203,-0.0449 0.0513,-0.009 0.10102,-0.0173 0.17579,-0.041 0.0374,-0.0119 0.0806,-0.0262 0.15039,-0.0625 0.0696,-0.0362 0.18454,-0.0772 0.32226,-0.29687 8e-5,-1.3e-4 0.0702,-0.13842 0.0703,-0.13868 1e-4,-2.5e-4 0.014,-0.0391 0.0176,-0.0508 0.007,-0.0233 0.009,-0.0354 0.0117,-0.0449 0.005,-0.0191 0.008,-0.0292 0.01,-0.0391 0.004,-0.0198 0.008,-0.0357 0.0117,-0.0566 0.008,-0.0418 0.0184,-0.096 0.0312,-0.16602 0.0257,-0.14007 0.0617,-0.34235 0.10742,-0.59961 0.0914,-0.51452 0.22055,-1.25323 0.3789,-2.16211 0.31671,-1.81776 0.74834,-4.31513 1.21875,-7.05664 1.91052,-11.134245 3.38368,-19.098324 4.53321,-24.429686 0.57476,-2.66568 1.07031,-4.673898 1.49218,-6.076172 0.42188,-1.402273 0.86606,-2.24061 0.9336,-2.3125 0.41326,-0.439891 1.03406,-0.741302 1.5957,-0.828125 0.56164,-0.08682 0.99918,0.04932 1.18555,0.236329 0.15582,0.156358 0.18564,0.195545 0.20508,0.240234 0.0194,0.04469 0.0559,0.168143 0.0547,0.501953 -0.002,0.66762 -0.16812,2.045486 -0.50976,4.701172 -0.38066,2.958995 -1.4285,9.737154 -2.32422,15.009766 -2.07758,12.229479 -3.06616,17.860559 -3.36133,20.582029 -0.14759,1.36074 -0.2437,1.99736 0.16016,2.66211 0.20193,0.33238 0.59363,0.5273 0.83008,0.58399 0.23645,0.0567 0.37041,0.0637 0.47461,0.0898 a 0.80708062,0.80708062 0 0 0 0.002,0 c 0.49998,0.12525 1.08001,0.12375 1.91406,0.12305 0.83405,-7.1e-4 1.83322,-0.0358 2.81641,-0.10547 l 3.5039,-0.24805 a 0.80708062,0.80708062 0 0 0 0.73828,-0.66211 l 1.17188,-6.57226 a 0.80708062,0.80708062 0 0 0 0,-0.002 c 3.05536,-17.147004 4.75313,-26.939536 5.56641,-32.804685 0.81327,-5.865149 0.76433,-7.893572 0.1875,-9.416016 -0.52786,-1.393142 -1.65915,-2.610082 -2.9961,-3.521484 -1.33695,-0.911402 -2.88976,-1.523437 -4.39258,-1.523438 z"
       transform="matrix(0.26458333,0,0,0.26458333,68.394791,121.97292)" /><path
       id="path56124"
       style="fill:#5271ff;fill-opacity:1;stroke-width:0.362439"
       d="m -193.17969,58.353516 a 0.54371316,0.54371316 0 0 0 -0.54297,0.542968 l -0.01,23.648438 c -0.003,6.501494 -0.0431,12.789681 -0.10352,17.681638 -0.0605,4.89196 -0.14882,8.44781 -0.22851,9.27149 -0.31046,3.20859 -0.9359,5.53727 -1.86719,7.07031 -0.93129,1.53304 -2.1202,2.30231 -3.78711,2.52344 -0.56312,0.0747 -1.14305,0.20993 -1.64648,0.37304 -0.50343,0.16311 -0.90944,0.32029 -1.22852,0.59375 -0.41524,0.35588 -0.59185,0.85327 -0.8125,1.49024 -0.22065,0.63696 -0.41679,1.39734 -0.56641,2.15625 -0.14961,0.75891 -0.25345,1.51052 -0.28125,2.14062 -0.0139,0.31506 -0.009,0.59909 0.0254,0.85352 0.0342,0.25443 0.0643,0.49347 0.29688,0.73633 0.21262,0.22201 0.42226,0.26748 0.66406,0.32226 0.2418,0.0548 0.52509,0.0876 0.86914,0.10938 0.68811,0.0435 1.6157,0.0365 2.79883,-0.0176 3.05825,-0.13974 4.03016,-0.35907 6.08984,-1.37305 3.03879,-1.49599 4.75443,-3.46361 6.78907,-7.72461 2.54548,-5.33086 4.62979,-10.81704 16.0625,-42.273434 1.64821,-4.534955 3.16564,-8.708462 4.2832,-11.779297 1.11756,-3.070835 1.85995,-5.10642 1.87891,-5.15625 0.0595,-0.156368 0.0578,-0.417889 -0.0508,-0.595703 -0.10861,-0.177815 -0.25027,-0.255731 -0.37305,-0.310547 -0.24556,-0.109633 -0.49804,-0.148158 -0.85938,-0.185547 -0.72266,-0.07478 -1.85283,-0.09766 -3.60351,-0.09766 h -4.54883 a 0.54371316,0.54371316 0 0 0 -0.51758,0.378906 l -1.63476,5.164062 c -0.90123,2.849357 -2.79561,9.085874 -4.21485,13.873047 -2.19689,7.410292 -3.46494,11.631467 -4.25,14.009766 -0.39253,1.189149 -0.66836,1.920305 -0.86133,2.333984 -0.19297,0.41368 -0.29635,0.435419 -0.20507,0.400391 -0.019,0.0073 -0.0362,0.0061 -0.0566,0.01172 -0.001,-0.08628 -0.005,-0.14559 -0.004,-0.259766 0.004,-0.442953 0.0228,-1.080827 0.0566,-1.861328 0.0677,-1.561002 0.19271,-3.690515 0.35547,-6.00586 0.32645,-4.643976 0.75516,-11.70159 0.95508,-15.695312 0.19945,-3.98436 0.44292,-8.277601 0.53515,-9.5 l 0.16992,-2.265625 a 0.54371316,0.54371316 0 0 0 -0.54296,-0.583984 h -4.51563 z"
       transform="matrix(0.26458333,0,0,0.26458333,68.394791,121.97292)" /><path
       id="path56125"
       style="fill:#5271ff;fill-opacity:1;stroke-width:0.181219"
       d="m -208.58594,42.232422 c -3.50204,0.01898 -5.05595,0.303707 -7.23828,1.333984 -4.66077,2.200347 -7.33892,7.184965 -8.1582,15.039063 -0.10017,0.960292 -0.27677,3.603632 -0.39258,5.898437 l -0.21094,4.167969 a 0.1933578,0.1933578 0 0 0 0.0195,0.09375 l 2.39258,4.984375 c 5.32273,11.085924 7.24741,15.35032 7.97071,17.642578 0.60796,1.926777 0.63561,4.417769 0.22265,6.623047 -0.41296,2.205275 -1.28242,4.119215 -2.35351,4.904295 -0.48455,0.35516 -1.19764,0.48155 -1.86719,0.38672 -0.66955,-0.0948 -1.28036,-0.40879 -1.57813,-0.86328 -0.0758,-0.1157 -0.16349,-0.40315 -0.21289,-0.83203 -0.0494,-0.42888 -0.0692,-1.00187 -0.0605,-1.716799 0.0174,-1.429857 0.15401,-3.426335 0.41015,-6.003906 0.10402,-1.046711 0.1969,-2.013839 0.26563,-2.728516 0.0344,-0.357338 0.0627,-0.651364 0.082,-0.861328 0.01,-0.104982 0.0183,-0.189474 0.0234,-0.25 0.005,-0.06052 0.008,-0.07614 0.008,-0.121094 2.1e-4,-0.06737 -0.0355,-0.121897 -0.0625,-0.148437 -0.027,-0.02654 -0.0479,-0.03607 -0.0664,-0.04492 -0.037,-0.01769 -0.0666,-0.02578 -0.0996,-0.0332 -0.066,-0.01485 -0.14459,-0.02541 -0.24414,-0.03516 -0.1991,-0.0195 -0.47587,-0.03418 -0.81054,-0.04492 -0.66935,-0.02149 -1.56832,-0.02576 -2.50391,-0.01758 -0.93559,0.0082 -1.90737,0.0301 -2.7168,0.06445 -0.80943,0.03435 -1.44325,0.07667 -1.76172,0.140625 -0.43676,0.08772 -0.79056,0.175357 -1.09179,0.324219 -0.30124,0.148861 -0.54616,0.364644 -0.74219,0.673828 -0.39206,0.618366 -0.61856,1.590634 -0.98047,3.347656 -0.71991,3.494985 -0.76538,7.71325 -0.0918,10.27539 0.41463,1.5771 1.41548,3.53952 2.35547,4.60742 1.38555,1.57405 3.54105,2.74024 6.13477,3.33789 0.77718,0.17908 2.2526,0.22956 3.74804,0.19141 1.49545,-0.0382 2.98273,-0.16504 3.7754,-0.38281 0.63228,-0.17371 1.95186,-0.71423 2.99023,-1.2168 1.52446,-0.73785 2.16701,-1.18137 3.24219,-2.24609 1.72671,-1.70991 2.85378,-3.52701 3.61133,-6.35938 0.75754,-2.832364 1.15569,-6.68024 1.45703,-12.505858 l 0.20703,-4.025391 a 0.1933578,0.1933578 0 0 0 -0.0195,-0.09375 l -3.98828,-8.388672 c -3.43222,-7.218861 -5.25964,-11.156689 -6.14258,-13.736328 -0.88295,-2.579639 -0.82981,-3.776346 -0.50977,-5.630859 0.38083,-2.206835 0.96995,-3.912694 1.60547,-4.75586 0.70613,-0.936837 1.72437,-1.418877 2.6543,-1.443359 0.92992,-0.02448 1.75869,0.39004 2.15234,1.269531 0.20884,0.466588 0.30888,1.432072 0.25586,2.707032 -0.053,1.27496 -0.24756,2.86923 -0.58008,4.642578 -0.15419,0.822357 -0.29632,1.57468 -0.39844,2.125 -0.0511,0.27516 -0.0924,0.498619 -0.12109,0.65625 -0.0144,0.07881 -0.0255,0.141868 -0.0332,0.185547 -0.004,0.02184 -0.006,0.03966 -0.008,0.05273 -0.001,0.0065 -0.003,0.01021 -0.004,0.01563 -7.9e-4,0.0054 -0.002,0.03438 -0.002,0.03516 0,9.8e-5 0.037,0.113184 0.0371,0.113281 7e-5,9.8e-5 0.0467,0.04678 0.0469,0.04687 1.4e-4,9.8e-5 0.0291,0.01553 0.0293,0.01563 2.1e-4,9.7e-5 0.0145,0.0061 0.0195,0.0078 0.0199,0.0069 0.0276,0.0085 0.0351,0.0098 0.0151,0.0026 0.0236,0.0029 0.0352,0.0039 0.0232,0.002 0.0521,0.0043 0.0879,0.0059 0.0716,0.0031 0.17334,0.0051 0.30469,0.0078 0.26269,0.0054 0.64077,0.0096 1.10742,0.01367 0.93331,0.0081 2.21955,0.01367 3.63477,0.01367 h 5.14453 a 0.1933578,0.1933578 0 0 0 0.18945,-0.160156 l 0.10547,-0.589844 c 0.0609,-0.342945 0.28067,-1.85661 0.49414,-3.402343 0.24869,-1.800809 0.35693,-3.722223 0.33008,-5.398438 -0.0268,-1.676215 -0.18237,-3.100193 -0.48828,-3.947265 -0.88111,-2.439773 -2.26273,-4.3353 -4.41797,-6.072266 -1.00748,-0.811953 -1.80408,-1.306062 -2.85547,-1.582031 -1.05139,-0.275969 -2.3433,-0.337172 -4.37305,-0.326172 z"
       transform="matrix(0.26458333,0,0,0.26458333,68.394791,121.97292)" /><path
       style="fill:#c8f9dc;fill-opacity:1;stroke-width:0.362439"
       d="m -205.98834,181.88911 c -0.13168,-5.1175 -0.24509,-14.53798 -0.25201,-20.9344 l -0.0126,-11.62987 -4.78972,-2.15471 c -11.85093,-5.33129 -19.87557,-10.73836 -27.57203,-18.57825 -10.02988,-10.21681 -16.03798,-21.84951 -18.4004,-35.626291 -0.59395,-3.463732 -0.58947,-13.13083 0.008,-16.672192 0.8479,-5.027978 2.21727,-9.850623 4.09113,-14.408104 8.71038,-21.184781 28.11178,-36.664456 55.33569,-44.150336 7.82839,-2.152604 7.75584,-2.150083 61.84717,-2.150083 54.079627,0 53.862098,-0.0075 62.287883,2.158728 16.213837,4.168572 29.901843,11.316707 39.765989,20.766552 6.548742,6.273691 10.471988,11.61961 14.295969,19.480077 2.435133,5.005589 4.465451,10.580448 5.47788,15.041216 0.919388,4.050828 0.936405,18.911092 0.02648,23.129439 -2.171937,10.068964 -8.17704,21.744824 -15.456687,30.052774 -10.759341,12.27917 -27.789531,21.72691 -46.795003,25.9602 -6.320268,1.40777 -11.296066,1.63249 -46.373491,2.09429 l -32.43829,0.42706 -5.6178,4.04605 c -3.08979,2.22534 -11.81551,8.52605 -19.39048,14.00159 -16.44204,11.88507 -23.59043,17.01512 -24.85948,17.84044 l -0.93851,0.61035 z m 12.25054,-49.00459 c 4.07314,-1.45997 7.85455,-4.54666 10.68611,-8.72286 1.77602,-2.6194 2.92559,-4.91623 4.73996,-9.47038 1.62178,-4.07075 2.85039,-6.57596 2.87526,-5.86283 0.009,0.25256 -0.39423,2.35672 -0.89566,4.67592 -0.50142,2.31919 -0.86404,4.26435 -0.80581,4.32258 0.0805,0.0806 38.17001,-0.47135 38.59565,-0.55924 0.0498,-0.0103 0.0915,-0.30413 0.0926,-0.65298 0.001,-0.34885 0.17489,-1.25681 0.38618,-2.01769 l 0.38415,-1.38343 1.63418,1.50634 c 2.89965,2.6728 7.00651,3.9788 12.51177,3.9788 1.94172,0 4.34737,-0.1752 5.34588,-0.38935 2.20105,-0.47204 5.58085,-2.599 8.39458,-5.28283 l 2.0852,-1.98896 2.33927,2.33927 c 3.7721,3.7721 7.822432,5.32187 13.908742,5.32187 3.49884,0 6.101801,-0.5783 9.924187,-2.20487 2.769889,-1.1787 3.400406,-1.06153 3.072188,0.57089 -0.08049,0.40034 -0.248466,1.54337 -0.373272,2.54008 -0.124806,0.99671 -0.715295,4.32364 -1.312199,7.39318 -0.995178,5.11766 -1.037098,5.62918 -0.504947,6.16146 0.502696,0.50282 1.851378,0.58048 10.081555,0.58048 10.043603,0 10.577806,-0.0795 11.654474,-1.73434 0.287247,-0.4415 0.857433,-2.7599 1.267076,-5.152 0.895865,-5.23141 1.329045,-6.85966 1.965448,-7.38783 0.26424,-0.2193 1.956232,-0.55141 3.759982,-0.73803 3.873975,-0.40079 6.183759,-1.42722 8.873614,-3.94326 3.276575,-3.06485 3.921415,-4.88438 6.779848,-19.130552 3.283907,-16.366699 4.948828,-28.388552 4.392579,-31.717344 -0.704654,-4.216883 -2.683799,-7.935662 -5.060413,-9.508433 -3.044795,-2.014951 -4.721231,-2.247056 -15.390643,-2.130862 l -9.743649,0.106115 0.241515,-1.193431 c 0.942153,-4.655561 2.057366,-12.074722 1.962723,-13.057402 l -0.114013,-1.183829 -5.436584,-0.225038 c -8.139125,-0.336905 -24.832174,-0.323193 -29.341429,0.0241 -3.301449,0.254271 -4.069244,0.427503 -4.555318,1.027781 -0.362084,0.447153 -1.110154,3.669255 -1.965284,8.464874 -0.75937,4.258601 -1.51536,8.100659 -1.67999,8.537906 -0.37219,0.988526 -1.02067,0.83474 -5.823,-1.380915 -3.2951,-1.520264 -3.49065,-1.563384 -7.01399,-1.546632 -5.63801,0.0268 -8.9557,1.11886 -13.59456,4.474806 l -2.35895,1.706565 -1.37005,-1.73676 c -2.5925,-3.286426 -8.49389,-5.267771 -12.83982,-4.310871 -2.54757,0.560933 -28.64882,0.942697 -37.95243,0.555105 l -6.22339,-0.259271 -0.62772,-2.410462 c -1.71138,-6.57173 -6.07029,-11.558685 -11.29355,-12.920769 -2.73803,-0.714003 -10.41489,-0.749029 -13.28246,-0.0606 -6.53,1.567676 -12.13928,8.572809 -14.32391,17.888359 -0.49628,2.116205 -0.6545,4.157534 -0.62674,8.086205 0.0445,6.300643 0.56229,8.528399 3.55055,15.276099 1.11657,2.521281 2.03013,4.744858 2.03013,4.941282 0,0.562088 -1.58451,0.726052 -5.08667,0.52637 -4.55633,-0.259793 -4.88929,0.110297 -6.12838,6.811928 -2.67855,14.486956 -0.11463,21.867446 9.19761,26.476206 l 3.23793,1.60249 4.73573,-0.0675 c 2.60465,-0.0371 5.79586,-0.30526 7.09158,-0.59581 1.29572,-0.29056 2.43296,-0.45488 2.52721,-0.36517 0.0943,0.0897 -0.2894,2.88585 -0.85256,6.21363 -0.56317,3.32779 -0.96648,6.45826 -0.89625,6.95661 0.39134,2.77692 11.56416,4.22679 17.14814,2.22527 z"
       id="path56126"
       transform="matrix(0.26458333,0,0,0.26458333,68.394791,121.97292)" /><path
       style="fill:#c8f9dc;fill-opacity:1;stroke-width:0.0640708"
       d="m -200.09001,77.297486 c -0.31282,-0.395743 -0.84119,-1.244525 -1.41332,-2.270382 -0.47017,-0.843014 -2.69018,-5.174359 -2.69018,-5.248653 0,-0.02542 0.82892,-0.03604 1.84204,-0.02358 2.02947,0.02495 2.10828,0.03881 2.50046,0.439947 0.44998,0.46025 0.55455,1.272849 0.50914,3.956493 -0.0395,2.332094 -0.181,3.470418 -0.43152,3.470418 -0.0332,0 -0.17566,-0.145907 -0.31662,-0.324238 z"
       id="path56127"
       transform="matrix(0.26458333,0,0,0.26458333,68.394791,121.97292)" /><path
       style="fill:#c8f9dc;fill-opacity:1;stroke-width:0.128142"
       d="m -116.11764,86.413034 c -0.25845,-0.07159 -0.56521,-0.235457 -0.68167,-0.36415 -0.19797,-0.218748 -0.18405,-0.32214 0.21363,-1.587475 0.23397,-0.744418 0.50971,-1.387036 0.61275,-1.42804 0.46164,-0.183695 3.15975,-0.338849 4.60656,-0.264899 1.74739,0.08931 2.55844,0.33551 2.84031,0.862183 0.21798,0.407303 0.21933,1.667888 0.002,2.073569 -0.37589,0.702355 -0.81314,0.789022 -4.11254,0.815138 -1.72595,0.01366 -3.21191,-0.03172 -3.48125,-0.106326 z"
       id="path56130"
       transform="matrix(0.26458333,0,0,0.26458333,68.394791,121.97292)" /><path
       style="fill:url(#linearGradient56133);fill-opacity:1;stroke-width:0.128142"
       d="m -205.71712,189.68148 c -0.18973,-3.33865 -0.35545,-13.65172 -0.4248,-26.43754 l -0.0758,-13.9758 -2.12736,-0.94629 c -7.95467,-3.53847 -13.20193,-6.32386 -17.95283,-9.52988 -8.20703,-5.5383 -15.41079,-12.69054 -20.6309,-20.48336 -5.08871,-7.59665 -8.51967,-16.26075 -9.99682,-25.244624 -0.40541,-2.465663 -0.58344,-7.662757 -0.4034,-11.776231 0.1621,-3.703732 0.32588,-5.041666 0.99388,-8.118949 3.3343,-15.360289 11.68523,-28.55564 24.46309,-38.654256 9.33375,-7.37667 20.68056,-12.911528 34.21378,-16.689137 5.42325,-1.513823 7.57645,-1.764606 17.17096,-1.999901 6.66389,-0.163424 82.985936,-0.163374 89.570924,5.8e-5 9.131147,0.226627 11.382247,0.464518 16.530256,1.746885 13.443851,3.348857 25.049257,8.645342 34.46516,15.729235 4.56927,3.437618 9.39349,8.123884 12.971958,12.60101 4.666581,5.838498 8.899428,13.957607 11.609583,22.268587 1.742955,5.344977 2.018523,7.606787 2.017537,16.559337 -7.44e-4,6.714395 -0.203374,9.713576 -0.83779,12.400646 -1.943586,8.23215 -6.601056,17.84354 -12.356801,25.50016 -4.653101,6.18982 -10.924219,11.88751 -18.268957,16.59846 -8.612891,5.52434 -18.565592,9.74426 -29.152195,12.36045 -8.337118,2.06028 -9.499208,2.11132 -64.577575,2.83624 l -16.46044,0.21667 -10.38521,7.49913 c -33.40482,24.12159 -40.00017,28.85255 -40.22282,28.85255 -0.0323,0 -0.0924,-0.59105 -0.13342,-1.31345 z m 9.91688,-56.20436 c 3.64209,-0.75318 7.00907,-2.73818 10.05911,-5.93034 2.88407,-3.01844 4.76599,-6.21 7.29436,-12.3705 1.37952,-3.36126 2.11797,-5.03412 2.57541,-5.83422 0.46382,-0.81128 0.4245,-0.46968 -0.43644,3.79151 -0.41465,2.05232 -0.79385,3.95716 -0.84265,4.23297 l -0.0887,0.50148 8.75539,-0.0805 c 12.04229,-0.11068 26.91626,-0.34482 28.61733,-0.4505 l 1.40956,-0.0876 0.085,-0.76885 c 0.0799,-0.72258 0.56402,-2.81746 0.70313,-3.04254 0.0349,-0.0564 0.55034,0.35296 1.14547,0.90977 2.34066,2.18994 4.7295,3.35926 8.18332,4.00567 2.71288,0.50775 8.37191,0.45766 10.50814,-0.093 2.33797,-0.60265 5.50523,-2.73352 8.88768,-5.97942 l 1.19348,-1.1453 1.56156,1.52195 c 2.41626,2.35495 3.5977,3.26713 5.40582,4.17379 2.81683,1.41248 5.865521,1.97867 9.987808,1.85489 3.436692,-0.10319 5.022802,-0.4587 8.977134,-2.01217 2.273461,-0.89313 2.983864,-1.04812 3.262931,-0.71186 0.151643,0.18273 0.144697,0.4316 -0.04781,1.7115 -0.435886,2.89811 -0.862994,5.38201 -1.623655,9.44245 -0.88046,4.7 -0.940546,5.6848 -0.372648,6.10773 0.64459,0.48005 1.675411,0.53721 9.737281,0.53991 9.570557,0.003 10.442099,-0.0805 11.501009,-1.10541 0.700396,-0.67787 1.103478,-2.11758 2.018101,-7.20807 0.707623,-3.93841 1.216716,-5.68402 1.739252,-5.96367 0.361167,-0.19329 1.843649,-0.47572 3.650534,-0.69546 4.311103,-0.5243 6.591356,-1.61492 9.538739,-4.56231 2.603156,-2.60315 3.450953,-5.04385 5.827825,-16.777477 3.82915,-18.902973 5.384801,-30.490836 4.606777,-34.315293 -0.77154,-3.792553 -2.712794,-7.237302 -4.924735,-8.738898 -1.588122,-1.07811 -2.841525,-1.559904 -4.913958,-1.888861 -1.281031,-0.203339 -2.401667,-0.224932 -10.819706,-0.208481 -8.656203,0.01692 -9.385751,0.0019 -9.327946,-0.192212 0.130217,-0.437291 0.854896,-4.402622 1.221099,-6.68171 0.864724,-5.381694 1.090241,-7.917103 0.743003,-8.353278 -0.13542,-0.1701 -0.883228,-0.228362 -4.837342,-0.376881 -6.318364,-0.23732 -26.928979,-0.241881 -29.728832,-0.0066 -3.730828,0.313544 -4.601998,0.555566 -4.943726,1.373424 -0.343867,0.823006 -1.046625,3.992412 -1.845755,8.324373 -1.068,5.789588 -1.50748,7.939925 -1.73303,8.479729 -0.18805,0.450088 -0.20302,0.457527 -0.80005,0.397876 -0.70761,-0.0707 -1.56953,-0.403863 -4.63164,-1.790304 -3.59605,-1.628194 -3.36817,-1.578429 -7.18915,-1.570049 -3.7768,0.0083 -4.91403,0.157968 -7.36814,0.969819 -2.27579,0.752859 -3.68075,1.538185 -7.01862,3.923157 -0.82969,0.592833 -1.56917,1.057668 -1.64328,1.032965 -0.0741,-0.0247 -0.57737,-0.587332 -1.11836,-1.250286 -0.541,-0.662954 -1.38727,-1.512847 -1.88061,-1.888651 -2.97474,-2.265993 -7.31014,-3.392029 -10.8281,-2.812382 -0.66961,0.110331 -2.37069,0.26021 -3.78017,0.333065 -9.5775,0.495054 -33.87244,0.531445 -39.85772,0.0597 l -0.90283,-0.07116 -0.23379,-0.920548 c -0.95803,-3.772103 -2.17694,-6.521123 -3.91144,-8.821517 -2.14442,-2.844052 -4.926,-4.810877 -7.82432,-5.532487 -1.51472,-0.377128 -3.35448,-0.515944 -6.85557,-0.517276 -4.83892,-0.0018 -6.59737,0.262557 -8.88928,1.336582 -4.79113,2.245199 -8.8439,7.410555 -11.03902,14.069522 -1.22585,3.718626 -1.55022,6.304973 -1.45675,11.615063 0.10603,6.023676 0.50321,7.678338 3.56795,14.864416 2.08123,4.879964 2.03434,4.760661 1.93448,4.922232 -0.20389,0.329895 -1.2161,0.413022 -4.53983,0.372829 -3.38033,-0.04088 -3.41764,-0.03842 -4.03508,0.265526 -1.12174,0.552196 -1.59848,1.625445 -2.31704,5.216139 -0.97811,4.887691 -1.28192,7.89312 -1.18394,11.712104 0.0526,2.05198 0.13767,3.0802 0.33321,4.02918 0.69591,3.37748 2.07934,6.08687 4.20373,8.23284 1.65393,1.67074 3.25292,2.73511 6.70642,4.46411 l 2.22097,1.11194 4.29983,-0.14157 c 4.27469,-0.14074 6.3922,-0.32412 8.1845,-0.70877 0.51557,-0.11066 1.12996,-0.20119 1.36532,-0.20119 0.50971,0 0.52182,-0.34398 -0.13982,3.97239 -0.24307,1.58575 -0.58315,3.8058 -0.75573,4.93345 -0.17259,1.12764 -0.35194,2.58165 -0.39856,3.23112 -0.0814,1.13441 -0.0718,1.19787 0.24488,1.61304 0.69247,0.90787 2.96505,1.772 5.77433,2.19563 1.97643,0.29804 2.12536,0.3056 5.08155,0.25788 2.10224,-0.0339 3.04348,-0.10413 3.97238,-0.29623 z"
       id="path56131"
       transform="matrix(0.26458333,0,0,0.26458333,68.394791,121.97292)" /><path
       style="fill:#000000;fill-opacity:0;stroke-width:0.181219"
       d="m -116.601,86.111701 c -0.31372,-0.229401 -0.30962,-0.29446 0.0983,-1.560931 0.32298,-1.00281 0.52755,-1.360302 0.84819,-1.482208 0.2324,-0.08836 1.62009,-0.160527 3.08374,-0.160372 3.04092,3.21e-4 3.80325,0.218657 4.04798,1.15936 0.21196,0.814722 -0.0637,1.792078 -0.57911,2.052873 -0.64735,0.32759 -7.04931,0.320144 -7.49907,-0.0087 z"
       id="path56133"
       transform="matrix(0.26458333,0,0,0.26458333,68.394791,121.97292)" /><path
       style="fill:#abd5f0;fill-opacity:1;stroke-width:0.0640708"
       d="m -115.97629,86.401029 c -0.57016,-0.101575 -0.88877,-0.355015 -0.88877,-0.706977 0,-0.262324 0.35916,-1.451629 0.65293,-2.162113 0.13917,-0.336568 0.2303,-0.473692 0.33025,-0.496957 0.52243,-0.121592 1.26994,-0.174366 2.89919,-0.204677 2.016,-0.03751 2.86668,0.02119 3.60301,0.248621 0.78854,0.243557 1.00458,0.637816 0.95916,1.750403 -0.0401,0.981038 -0.25189,1.293934 -1.01234,1.495337 -0.27881,0.07384 -0.96773,0.09707 -3.29964,0.111261 -1.62099,0.0099 -3.0807,-0.0058 -3.24379,-0.0349 z"
       id="path56134"
       transform="matrix(0.26458333,0,0,0.26458333,68.394791,121.97292)" /><path
       style="fill:#abd5f0;fill-opacity:1;stroke-width:0.0906097"
       d="m -116.19407,86.307184 c -0.382,-0.120329 -0.60188,-0.358294 -0.60188,-0.651398 0,-0.354049 0.60142,-2.189346 0.79499,-2.425984 0.13101,-0.160165 0.31092,-0.205013 1.10782,-0.276158 1.41979,-0.126755 4.09838,-0.105222 4.90975,0.03947 1.26615,0.225794 1.47823,0.472938 1.47823,1.722656 0,0.959405 -0.12665,1.242041 -0.66397,1.481754 -0.28472,0.127024 -0.79689,0.151529 -3.54938,0.16983 -1.76916,0.01176 -3.33316,-0.01531 -3.47556,-0.06017 z"
       id="path56135"
       transform="matrix(0.26458333,0,0,0.26458333,68.394791,121.97292)" /></g></svg>
